<?xml version="1.0" encoding="utf-8"?>
<!-- Generator: Adobe Illustrator 21.0.0, SVG Export Plug-In . SVG Version: 6.00 Build 0)  -->
<!DOCTYPE svg PUBLIC "-//W3C//DTD SVG 1.1//EN" "http://www.w3.org/Graphics/SVG/1.1/DTD/svg11.dtd">
<svg version="1.1" xmlns="http://www.w3.org/2000/svg" xmlns:xlink="http://www.w3.org/1999/xlink" x="0px" y="0px"
	 viewBox="0 0 234.2 125.4" style="enable-background:new 0 0 234.2 125.4;" xml:space="preserve">
<g id="patek_label" style="fill: #C0AF9F">
	<g>
		<path d="M31.7,87.4H19.8l-2.4,6.3h-3.5l10.5-26.5h3.2l10.3,26.5h-3.7L31.7,87.4z M20.9,84.5h9.7l-4.9-12.7L20.9,84.5z"/>
		<path d="M3.4,70v9.6H8c0,0,0.8,0,1.3,0c1.4,0,2.4-0.3,3.2-1.1c0.9-0.8,1.3-2.2,1.3-3.6s-0.4-2.7-1.3-3.7c-0.9-1-2.6-1.1-2.9-1.1
			c-0.3,0-0.5,0-0.5,0H3.4V70z M0,67.2h9.1c1.4,0,3.8,0.3,5.5,1.7c2.3,1.8,2.7,4.3,2.7,5.9s-0.4,3.8-2,5.3c-2.1,2-4.2,2.3-7.3,2.3
			H3.4v11.3H0V67.2z"/>
		<g>
			<polygon points="121.3,67.2 124.7,67.2 124.7,78.6 136.6,78.6 136.6,67.2 139.9,67.2 139.9,93.7 136.6,93.7 136.6,81.5 
				124.7,81.5 124.7,93.7 121.3,93.7 			"/>
		</g>
		<g>
			<g>
				<rect x="145" y="67.2" width="3.4" height="26.5"/>
				<path d="M146.6,80.5"/>
			</g>
		</g>
		<g>
			<polygon points="153.3,67.2 156.7,67.2 156.7,90.8 168.2,90.8 168.2,93.7 153.3,93.7 			"/>
		</g>
		<g>
			<polygon points="52.5,67.2 52.5,70.1 44.4,70.1 44.4,93.7 41.1,93.7 41.1,70.1 33,70.1 33,67.2 			"/>
		</g>
		<g>
			<polygon points="69.7,67.2 68,70.1 58,70.1 58,78.4 67.4,78.4 67.4,81.4 58,81.4 58,90.8 67.8,90.8 69.5,93.7 54.6,93.7 
				54.6,67.2 			"/>
		</g>
		<g>
			<polygon points="75.7,79.6 87.1,67.2 91.3,67.2 82.6,76.7 91.5,93.7 87.7,93.7 80.3,79.1 75.7,84 75.7,93.7 72.4,93.7 72.4,67.2 
				75.7,67.2 			"/>
		</g>
		<g>
			<polygon points="123.3,123.4 129.7,123.4 130.8,125.4 121,125.4 121,107.9 132.3,107.9 137.4,122.4 142.6,107.9 144.9,107.9 
				138.3,125.4 136.2,125.4 130.6,109.9 123.3,109.9 123.3,115.3 129.4,115.3 129.4,117.3 123.3,117.3 			"/>
		</g>
		<path d="M104.8,70v9.6h4.7c0,0,0.8,0,1.3,0c1.4,0,2.4-0.3,3.2-1.1c0.9-0.8,1.3-2.2,1.3-3.6s-0.4-2.7-1.3-3.7s-2.6-1.1-2.9-1.1
			s-0.5,0-0.5,0h-5.8V70z M101.5,67.2h9.1c1.4,0,3.8,0.3,5.5,1.7c2.3,1.8,2.7,4.3,2.7,5.9s-0.4,3.8-2,5.3c-2.1,2-4.2,2.3-7.3,2.3
			h-4.7v11.3h-3.4V67.2H101.5z"/>
		<g>
			<g>
				<rect x="170.4" y="67.2" width="3.4" height="26.5"/>
				<path d="M172,80.5"/>
			</g>
		</g>
		<path d="M182.1,70v9.6h4.7c0,0,0.8,0,1.3,0c1.4,0,2.4-0.3,3.2-1.1c0.9-0.8,1.3-2.2,1.3-3.6s-0.4-2.7-1.3-3.7
			c-0.9-1-2.6-1.1-2.9-1.1c-0.3,0-0.5,0-0.5,0h-5.8V70z M178.7,67.2h9.1c1.4,0,3.8,0.3,5.5,1.7c2.3,1.8,2.7,4.3,2.7,5.9
			s-0.4,3.8-2,5.3c-2.1,2-4.2,2.3-7.3,2.3H182v11.3h-3.4L178.7,67.2L178.7,67.2z"/>
		<path d="M202.3,70v9.6h4.7c0,0,0.8,0,1.3,0c1.4,0,2.4-0.3,3.2-1.1c0.9-0.8,1.3-2.2,1.3-3.6s-0.4-2.7-1.3-3.7
			c-0.9-1-2.6-1.1-2.9-1.1c-0.3,0-0.5,0-0.5,0h-5.8V70z M198.9,67.2h9.1c1.4,0,3.8,0.3,5.5,1.7c2.3,1.8,2.7,4.3,2.7,5.9
			s-0.4,3.8-2,5.3c-2.1,2-4.2,2.3-7.3,2.3h-4.7v11.3h-3.4L198.9,67.2L198.9,67.2z"/>
		<g>
			<polygon points="234.2,67.2 232.5,70.1 222.5,70.1 222.5,78.4 231.8,78.4 231.8,81.4 222.5,81.4 222.5,90.8 232.3,90.8 
				233.9,93.7 219.1,93.7 219.1,67.2 			"/>
		</g>
		<path d="M91.1,116.5v6.3c-1.4,1.4-3.2,2.9-6.8,2.9c-4,0-7.7-3.4-7.7-8.8c0-5.1,3.4-9.2,8.2-9.2c3.8,0,5.7,2.4,6.4,3.4l-1.6,1.5
			c0,0-1.6-3-4.8-3c-3.2,0-5.7,2.9-5.7,7.4c0,4.3,2.7,6.9,5.6,6.9c2.5,0,4.2-1.7,4.3-1.8v-3.6h-5.3v-1.9h7.4V116.5z"/>
		<g>
			<polygon points="104,107.9 102.9,109.9 96.3,109.9 96.3,115.3 102.5,115.3 102.5,117.3 96.3,117.3 96.3,123.4 102.7,123.4 
				103.8,125.4 94.1,125.4 94.1,107.9 			"/>
		</g>
		<g>
			<polygon points="115.9,107.9 118,107.9 118,125.4 115.8,125.4 107.9,111.1 107.9,125.4 105.8,125.4 105.8,107.9 108.6,107.9 
				115.9,121.1 			"/>
		</g>
		<g>
			<polygon points="156.2,107.9 155.2,109.9 148.6,109.9 148.6,115.3 154.7,115.3 154.7,117.3 148.6,117.3 148.6,123.4 155,123.4 
				156.1,125.4 146.4,125.4 146.4,107.9 			"/>
		</g>
	</g>
</g>
</svg>
